<svg width="256" height="256" viewBox="0 0 256 256" fill="none" xmlns="http://www.w3.org/2000/svg">
<mask id="path-1-outside-1_36_2" maskUnits="userSpaceOnUse" x="8" y="13" width="242" height="72" fill="black">
<rect fill="white" x="8" y="13" width="242" height="72"/>
<path d="M8 13H238C243.523 13 248 17.4772 248 23V73C248 78.5228 243.523 83 238 83H8V13Z"/>
</mask>
<path d="M8 13H238C243.523 13 248 17.4772 248 23V73C248 78.5228 243.523 83 238 83H8V13Z" fill="#383838"/>
<path d="M8 13H248H8ZM250 73C250 79.6274 244.627 85 238 85H8V81H238C242.418 81 246 77.4183 246 73H250ZM8 83V13V83ZM238 13C244.627 13 250 18.3726 250 25V73C250 79.6274 244.627 85 238 85V81C242.418 81 246 77.4183 246 73V23C246 17.4772 242.418 13 238 13Z" fill="#282828" mask="url(#path-1-outside-1_36_2)"/>
<mask id="path-3-outside-2_36_2" maskUnits="userSpaceOnUse" x="8" y="93" width="192" height="72" fill="black">
<rect fill="white" x="8" y="93" width="192" height="72"/>
<path d="M8 93H188C193.523 93 198 97.4772 198 103V153C198 158.523 193.523 163 188 163H8V93Z"/>
</mask>
<path d="M8 93H188C193.523 93 198 97.4772 198 103V153C198 158.523 193.523 163 188 163H8V93Z" fill="#383838"/>
<path d="M8 93H198H8ZM200 153C200 159.627 194.627 165 188 165H8V161H188C192.418 161 196 157.418 196 153H200ZM8 163V93V163ZM188 93C194.627 93 200 98.3726 200 105V153C200 159.627 194.627 165 188 165V161C192.418 161 196 157.418 196 153V103C196 97.4772 192.418 93 188 93Z" fill="#282828" mask="url(#path-3-outside-2_36_2)"/>
<mask id="path-5-outside-3_36_2" maskUnits="userSpaceOnUse" x="8" y="173" width="142" height="72" fill="black">
<rect fill="white" x="8" y="173" width="142" height="72"/>
<path d="M8 173H138C143.523 173 148 177.477 148 183V233C148 238.523 143.523 243 138 243H8V173Z"/>
</mask>
<path d="M8 173H138C143.523 173 148 177.477 148 183V233C148 238.523 143.523 243 138 243H8V173Z" fill="#383838"/>
<path d="M8 173H148H8ZM150 233C150 239.627 144.627 245 138 245H8V241H138C142.418 241 146 237.418 146 233H150ZM8 243V173V243ZM138 173C144.627 173 150 178.373 150 185V233C150 239.627 144.627 245 138 245V241C142.418 241 146 237.418 146 233V183C146 177.477 142.418 173 138 173Z" fill="#282828" mask="url(#path-5-outside-3_36_2)"/>
</svg>
